Jump_normalized_pl02_filtered_grf
version=1
nRows=27
nColumns=37
inDegrees=yes
endheader
time		1_ground_force_vx		1_ground_force_vy		1_ground_force_vz		1_ground_force_px		1_ground_force_py		1_ground_force_pz		1_ground_torque_x		1_ground_torque_y		1_ground_torque_z		2_ground_force_vx		2_ground_force_vy		2_ground_force_vz		2_ground_force_px		2_ground_force_py		2_ground_force_pz		2_ground_torque_x		2_ground_torque_y		2_ground_torque_z		3_ground_force_vx		3_ground_force_vy		3_ground_force_vz		3_ground_force_px		3_ground_force_py		3_ground_force_pz		3_ground_torque_x		3_ground_torque_y		3_ground_torque_z		4_ground_force_vx		4_ground_force_vy		4_ground_force_vz		4_ground_force_px		4_ground_force_py		4_ground_force_pz		4_ground_torque_x		4_ground_torque_y		4_ground_torque_z		
0.004500		0.000000		-0.000000		-0.000000		0.149275		0.000000		0.265966		-0.000000		-0.000000		0.000000		-0.000000		-0.000000		-0.000000		-0.133537		0.000000		0.279475		-0.000000		0.000000		-0.000000		-11.496914		311.418550		228.383959		0.374287		1.308730		1.914450		-0.352095		18.224150		-51.371339		0.439568		456.034144		281.528777		-0.266543		1.308994		1.925635		1.395763		-16.566220		60.375589		
0.007051		0.000000		-0.000000		-0.000000		0.149275		0.000000		0.265966		-0.000000		-0.000000		0.000000		-0.000000		-0.000000		-0.000000		-0.133537		0.000000		0.279475		-0.000000		0.000000		-0.000000		-12.145608		311.884272		231.680831		0.374278		1.308708		1.914572		-0.219060		18.642465		-51.639981		-0.264692		456.411934		284.179770		-0.266540		1.308990		1.925687		1.404218		-16.863682		60.541770		
0.009601		0.000000		-0.000000		-0.000000		0.149275		0.000000		0.265966		-0.000000		-0.000000		0.000000		-0.000000		-0.000000		-0.000000		-0.133537		0.000000		0.279475		-0.000000		0.000000		-0.000000		-12.695073		312.324455		234.898852		0.374269		1.308690		1.914687		-0.090745		19.071652		-51.912333		-0.757487		456.790769		286.830415		-0.266537		1.308987		1.925740		1.413328		-17.170952		60.701276		
0.012152		0.000000		-0.000000		-0.000000		0.149275		0.000000		0.265966		-0.000000		-0.000000		0.000000		0.000000		-0.000000		-0.000000		-0.133537		0.000000		0.279475		-0.000000		0.000000		-0.000000		-13.102583		312.717054		237.948263		0.374260		1.308678		1.914788		0.029231		19.500154		-52.181256		-1.014937		457.101321		289.406550		-0.266532		1.308986		1.925794		1.424165		-17.482471		60.847838		
0.014702		-0.000000		-0.000000		-0.000000		0.149275		0.000000		0.265966		-0.000000		0.000000		0.000000		0.000000		-0.000000		-0.000000		-0.133537		0.000000		0.279475		-0.000000		0.000000		-0.000000		-13.349449		313.058626		240.798460		0.374252		1.308670		1.914871		0.138103		19.919892		-52.443214		-1.055637		457.280463		291.874838		-0.266526		1.308987		1.925849		1.437931		-17.795077		60.977501		
0.017253		-0.000000		0.000000		0.000000		0.149275		0.000000		0.265966		0.000000		0.000000		-0.000000		0.000000		-0.000000		-0.000000		-0.133537		0.000000		0.279475		-0.000000		0.000000		-0.000000		-13.439202		313.364011		243.467190		0.374241		1.308665		1.914930		0.233996		20.326244		-52.698063		-0.933010		457.279206		294.235354		-0.266518		1.308988		1.925906		1.455535		-18.107337		61.088326		
0.019803		-0.000000		0.000000		0.000000		0.149275		0.000000		0.265966		0.000000		0.000000		-0.000000		0.000000		0.000000		-0.000000		-0.133537		0.000000		0.279475		0.000000		-0.000000		0.000000		-13.392173		313.661249		246.001653		0.374228		1.308662		1.914962		0.316020		20.717462		-52.948165		-0.721255		457.066735		296.507809		-0.266509		1.308988		1.925963		1.477110		-18.418699		61.179794		
0.022354		-0.000000		0.000000		0.000000		0.149275		0.000000		0.265966		0.000000		0.000000		-0.000000		0.000000		0.000000		0.000000		-0.133537		0.000000		0.279475		0.000000		-0.000000		0.000000		-13.239972		313.983426		248.458713		0.374211		1.308659		1.914966		0.384492		21.093950		-53.197120		-0.499276		456.630768		298.716534		-0.266498		1.308985		1.926019		1.501623		-18.728730		61.252184		
0.024904		-0.000000		0.000000		0.000000		0.149275		0.000000		0.265966		0.000000		0.000000		-0.000000		0.000000		0.000000		0.000000		-0.133537		0.000000		0.279475		0.000000		-0.000000		0.000000		-13.020664		314.360401		250.888800		0.374190		1.308654		1.914947		0.441205		21.457659		-53.448485		-0.336818		455.974536		300.877754		-0.266486		1.308980		1.926074		1.526825		-19.036604		61.306101		
0.027455		-0.000000		0.000000		0.000000		0.149275		0.000000		0.265966		0.000000		0.000000		-0.000000		0.000000		0.000000		0.000000		-0.133537		0.000000		0.279475		0.000000		-0.000000		0.000000		-12.774218		314.812627		253.326177		0.374164		1.308648		1.914914		0.489519		21.811671		-53.704897		-0.284975		455.111192		302.991203		-0.266475		1.308972		1.926128		1.549632		-19.340831		61.342224		
0.030005		-0.000000		0.000000		0.000000		0.149275		0.000000		0.265966		0.000000		0.000000		-0.000000		-0.000000		0.000000		0.000000		-0.133537		0.000000		0.279475		0.000000		-0.000000		0.000000		-12.537948		315.347970		255.786476		0.374137		1.308642		1.914875		0.533951		22.159828		-53.967810		-0.372179		454.057994		305.037641		-0.266464		1.308962		1.926181		1.566831		-19.639184		61.361206		
0.032556		0.000000		-0.000000		-0.000000		0.149275		0.000000		0.265966		-0.000000		-0.000000		0.000000		-0.000000		0.000000		0.000000		-0.133537		0.000000		0.279475		0.000000		-0.000000		0.000000		-12.341978		315.962031		258.269811		0.374109		1.308636		1.914844		0.579206		22.506276		-54.237792		-0.606186		452.832045		306.982405		-0.266455		1.308951		1.926233		1.575802		-19.928819		61.363644		
0.035106		0.000000		-0.000000		-0.000000		0.149275		0.000000		0.265966		-0.000000		-0.000000		0.000000		-0.000000		0.000000		0.000000		-0.133537		0.000000		0.279475		0.000000		-0.000000		0.000000		-12.203856		316.639972		260.767950		0.374084		1.308633		1.914827		0.628757		22.855044		-54.514901		-0.975945		451.450957		308.784020		-0.266446		1.308940		1.926282		1.575470		-20.206492		61.350340		
0.037657		0.000000		-0.000000		-0.000000		0.149275		0.000000		0.265966		-0.000000		-0.000000		0.000000		-0.000000		-0.000000		-0.000000		-0.133537		0.000000		0.279475		-0.000000		0.000000		-0.000000		-12.127306		317.363217		263.271646		0.374064		1.308633		1.914831		0.683877		23.209347		-54.799168		-1.459226		449.930399		310.404962		-0.266437		1.308929		1.926330		1.566211		-20.468977		61.322257		
0.040207		0.000000		-0.000000		-0.000000		0.149275		0.000000		0.265966		-0.000000		-0.000000		0.000000		-0.000000		-0.000000		-0.000000		-0.133537		0.000000		0.279475		-0.000000		0.000000		-0.000000		-12.105835		318.114138		265.777085		0.374052		1.308636		1.914853		0.743659		23.571241		-55.090628		-2.027112		448.285586		311.821130		-0.266429		1.308921		1.926374		1.549704		-20.713439		61.280751		
0.042758		0.000000		-0.000000		-0.000000		0.149275		0.000000		0.265966		-0.000000		-0.000000		0.000000		-0.000000		-0.000000		-0.000000		-0.133537		0.000000		0.279475		-0.000000		0.000000		-0.000000		-12.128107		318.879044		268.289276		0.374049		1.308642		1.914890		0.805606		23.941646		-55.389095		-2.649504		446.531816		313.027950		-0.266418		1.308914		1.926417		1.528380		-20.937818		61.227709		
0.045308		0.000000		-0.000000		-0.000000		0.149275		0.000000		0.265966		-0.000000		-0.000000		0.000000		0.000000		-0.000000		-0.000000		-0.133537		0.000000		0.279475		-0.000000		0.000000		-0.000000		-12.181785		319.648199		270.822123		0.374054		1.308649		1.914933		0.866485		24.320934		-55.693861		-3.299556		444.684453		314.041858		-0.266406		1.308910		1.926457		1.504765		-21.141185		61.165543		
0.047859		-0.000000		0.000000		0.000000		0.149275		0.000000		0.265966		0.000000		0.000000		-0.000000		0.000000		-0.000000		-0.000000		-0.133537		0.000000		0.279475		-0.000000		0.000000		-0.000000		-12.255284		320.413195		273.397440		0.374066		1.308656		1.914976		0.923208		24.710023		-56.003570		-3.956903		442.758778		314.896591		-0.266392		1.308906		1.926495		1.480926		-21.323972		61.097029		
0.050409		-0.000000		0.000000		0.000000		0.149275		0.000000		0.265966		0.000000		0.000000		-0.000000		0.000000		-0.000000		-0.000000		-0.133537		0.000000		0.279475		-0.000000		0.000000		-0.000000		-12.339290		321.163650		276.045574		0.374082		1.308664		1.915013		0.973599		25.111701		-56.316393		-4.610368		440.769839		315.635233		-0.266376		1.308904		1.926532		1.458175		-21.488042		61.024953		
0.052960		-0.000000		0.000000		0.000000		0.149275		0.000000		0.265966		0.000000		0.000000		-0.000000		0.000000		0.000000		-0.000000		-0.133537		0.000000		0.279475		0.000000		-0.000000		0.000000		-12.428799		321.885481		278.807844		0.374097		1.308670		1.915044		1.016988		25.531642		-56.630555		-5.259513		438.731843		316.301120		-0.266358		1.308902		1.926569		1.436981		-21.636583		60.951689		
0.055510		-0.000000		0.000000		0.000000		0.149275		0.000000		0.265966		0.000000		0.000000		-0.000000		0.000000		0.000000		0.000000		-0.133537		0.000000		0.279475		0.000000		-0.000000		0.000000		-12.524817		322.561319		281.737984		0.374108		1.308676		1.915066		1.054527		25.978643		-56.944970		-5.913551		436.657040		316.931311		-0.266343		1.308901		1.926608		1.417062		-21.773851		60.878841		
0.058061		-0.000000		0.000000		0.000000		0.149275		0.000000		0.265966		0.000000		0.000000		-0.000000		0.000000		0.000000		0.000000		-0.133537		0.000000		0.279475		0.000000		-0.000000		0.000000		-12.633985		323.172425		284.899329		0.374113		1.308681		1.915082		1.089128		26.463769		-57.259698		-6.586993		434.554443		317.554544		-0.266329		1.308902		1.926649		1.397557		-21.904813		60.807075		
0.060611		-0.000000		0.000000		0.000000		0.149275		0.000000		0.265966		0.000000		0.000000		-0.000000		-0.000000		0.000000		0.000000		-0.133537		0.000000		0.279475		0.000000		-0.000000		0.000000		-12.764880		323.701145		288.353297		0.374113		1.308686		1.915096		1.124918		26.997921		-57.575788		-7.292683		432.429223		318.192560		-0.266318		1.308905		1.926694		-0.247579		14.680501		10.802293		
0.063162		0.000000		0.000000		-0.000000		0.149275		0.000000		0.265966		0.000000		-0.000000		-0.000000		-0.000000		0.000000		0.000000		-0.133537		0.000000		0.279475		0.000000		-0.000000		0.000000		-12.923883		324.130053		292.146345		0.374111		1.308691		1.915110		1.166405		27.589392		-57.894379		-8.036034		430.282868		318.863175		-0.266312		1.308909		1.926742		-0.274354		14.689993		10.886093		
0.065712		0.000000		-0.000000		-0.000000		0.149275		0.000000		0.265966		-0.000000		-0.000000		0.000000		-0.000000		0.000000		0.000000		-0.133537		0.000000		0.279475		0.000000		-0.000000		0.000000		-13.111640		324.439659		296.292854		0.374108		1.308695		1.915126		1.217441		28.241116		-58.215279		-8.812536		428.114870		319.583074		-0.266309		1.308915		1.926794		-0.302539		14.697365		10.971427		
0.068263		0.000000		-0.000000		-0.000000		0.149275		0.000000		0.265966		-0.000000		-0.000000		0.000000		-0.000000		-0.000000		0.000000		-0.133537		0.000000		0.279475		-0.000000		0.000000		-0.000000		-13.322289		324.605535		300.762976		0.374109		1.308699		1.915146		1.280360		28.948916		-58.535538		-9.609025		425.924843		320.369411		-0.266311		1.308922		1.926850		-0.331656		14.700762		11.057529		
0.070813		0.000000		-0.000000		-0.000000		0.149275		0.000000		0.265966		-0.000000		-0.000000		0.000000		-0.000000		-0.000000		-0.000000		-0.133537		0.000000		0.279475		-0.000000		0.000000		-0.000000		-13.544584		324.596745		305.479850		0.374114		1.308701		1.915172		1.355506		29.701293		-58.848644		-10.407343		423.714459		321.240310		-0.266316		1.308927		1.926909		-0.361040		14.698970		11.144070		
